<svg width="22" height="23" viewBox="0 0 22 23" fill="none" xmlns="http://www.w3.org/2000/svg">
<g filter="url(#filter0_d_27_23)">
<path d="M12.3125 1.5625C12.3125 0.851562 11.7109 0.25 11 0.25C10.2617 0.25 9.6875 0.851562 9.6875 1.5625C9.6875 2.30078 10.2617 2.875 11 2.875C11.7109 2.875 12.3125 2.30078 12.3125 1.5625ZM11 11.625C10.2617 11.625 9.6875 12.2266 9.6875 12.9375C9.6875 13.6758 10.2617 14.25 11 14.25C11.7109 14.25 12.3125 13.6758 12.3125 12.9375C12.3125 12.2266 11.7109 11.625 11 11.625ZM16.6875 5.9375C15.9492 5.9375 15.375 6.53906 15.375 7.25C15.375 7.98828 15.9492 8.5625 16.6875 8.5625C17.3984 8.5625 18 7.98828 18 7.25C18 6.53906 17.3984 5.9375 16.6875 5.9375ZM6.625 7.25C6.625 6.53906 6.02344 5.9375 5.3125 5.9375C4.57422 5.9375 4 6.53906 4 7.25C4 7.98828 4.57422 8.5625 5.3125 8.5625C6.02344 8.5625 6.625 7.98828 6.625 7.25ZM6.95312 9.98438C6.24219 9.98438 5.64062 10.5586 5.64062 11.2969C5.64062 12.0078 6.24219 12.6094 6.95312 12.6094C7.69141 12.6094 8.26562 12.0078 8.26562 11.2969C8.26562 10.5586 7.69141 9.98438 6.95312 9.98438ZM15.0195 9.98438C14.2812 9.98438 13.707 10.5586 13.707 11.2969C13.707 12.0078 14.2812 12.6094 15.0195 12.6094C15.7305 12.6094 16.332 12.0078 16.332 11.2969C16.332 10.5586 15.7305 9.98438 15.0195 9.98438ZM6.95312 1.91797C6.24219 1.91797 5.64062 2.51953 5.64062 3.23047C5.64062 3.96875 6.24219 4.54297 6.95312 4.54297C7.69141 4.54297 8.26562 3.96875 8.26562 3.23047C8.26562 2.51953 7.69141 1.91797 6.95312 1.91797Z" fill="white" fill-opacity="0.35" shape-rendering="crispEdges"/>
</g>
<defs>
<filter id="filter0_d_27_23" x="0" y="0.25" width="22" height="22" filterUnits="userSpaceOnUse" color-interpolation-filters="sRGB">
<feFlood flood-opacity="0" result="BackgroundImageFix"/>
<feColorMatrix in="SourceAlpha" type="matrix" values="0 0 0 0 0 0 0 0 0 0 0 0 0 0 0 0 0 0 127 0" result="hardAlpha"/>
<feOffset dy="4"/>
<feGaussianBlur stdDeviation="2"/>
<feComposite in2="hardAlpha" operator="out"/>
<feColorMatrix type="matrix" values="0 0 0 0 0 0 0 0 0 0 0 0 0 0 0 0 0 0 0.25 0"/>
<feBlend mode="normal" in2="BackgroundImageFix" result="effect1_dropShadow_27_23"/>
<feBlend mode="normal" in="SourceGraphic" in2="effect1_dropShadow_27_23" result="shape"/>
</filter>
</defs>
</svg>
